#N canvas 381 207 633 533 10;
#X obj 107 184 / 7.5;
#X obj 108 207 * 127;
#X obj 64 184 / 7.5;
#X obj 65 207 * 127;
#X obj 152 208 * 127;
#X obj 151 185 / 5;
#X obj 62 32 inlet;
#X obj 113 383 outlet;
#X obj 64 375 outlet;
#X obj 156 382 outlet;
#X obj 347 80 inlet;
#X obj 344 108 unpack f f f;
#X floatatom 86 269 5 0 0 0 - - -, f 5;
#X floatatom 160 270 5 0 0 0 - - -, f 5;
#X floatatom 124 269 5 0 0 0 - - -, f 5;
#X floatatom 261 239 5 0 0 0 - - -, f 5;
#X floatatom 303 242 5 0 0 0 - - -, f 5;
#X floatatom 362 243 5 0 0 0 - - -, f 5;
#X obj 64 109 unpack f f f;
#X obj 153 137 pipe 0;
#X obj 95 138 pipe 0;
#X connect 0 0 1 0;
#X connect 1 0 14 0;
#X connect 2 0 3 0;
#X connect 3 0 12 0;
#X connect 4 0 13 0;
#X connect 5 0 4 0;
#X connect 6 0 18 0;
#X connect 10 0 11 0;
#X connect 11 0 2 1;
#X connect 11 1 0 1;
#X connect 11 2 5 1;
#X connect 12 0 8 0;
#X connect 13 0 9 0;
#X connect 14 0 7 0;
#X connect 18 0 2 0;
#X connect 18 0 15 0;
#X connect 18 1 16 0;
#X connect 18 1 20 0;
#X connect 18 2 17 0;
#X connect 18 2 19 0;
#X connect 19 0 5 0;
#X connect 20 0 0 0;
#X coords 0 -1 1 1 120 30 1 80 260;
