#N canvas 475 36 1413 893 10;
#X floatatom 424 314 3 0 0 0 - - -;
#X floatatom 451 314 3 0 0 0 - - -;
#X floatatom 478 314 3 0 0 0 - - -;
#X floatatom 505 314 3 0 0 0 - - -;
#X floatatom 532 315 5 0 0 0 - - -;
#X obj 424 288 unpack 0 0 0 0 0;
#X msg 201 100 status;
#X floatatom 303 235 9 0 0 0 - - -;
#X obj 484 261 tgl 15 0 empty empty empty 17 7 0 10 -4034 -1 -1 0 1
;
#X floatatom 363 261 9 0 0 0 - - -;
#X text 0 100 get status on right outlet:;
#X text 196 235 bytes received:;
#X text 211 259 total bytes received:;
#X text 381 313 from:;
#X text 303 88 Specify a multicast address (from 224.0.0.0 to 239.255.255.255)
to use multicasting;
#X obj 201 304 spigot;
#X obj 240 284 tgl 15 0 empty empty enable_print: -77 8 0 10 -4034
-1 -1 1 1;
#X obj 201 329 print received;
#X obj 303 202 route received total from multicast;
#X text 286 137 change port to listen on;
#X msg 212 139 port 6161;
#X obj 839 533 soundfiler;
#X msg 479 804 bang;
#X obj 201 170 mrpeach/udpreceive 9997;
#X obj 77 250 mrpeach/unpackOSC;
#X obj 839 586 soundfiler;
#X msg 595 803 bang;
#X obj 916 586 table doos;
#X obj 595 825 tabplay~ doos;
#X msg 839 563 read -resize gong2.wav doos;
#X obj 507 718 ctlout 10 1;
#X obj 509 740 ctlout 11 1;
#X obj 507 761 ctlout 12 1;
#X obj 478 717 bng 15 250 50 0 empty empty empty 17 7 0 10 -262144
-1 -1;
#X obj 588 690 unpack s f f f;
#X obj 589 717 bng 15 250 50 0 empty empty empty 17 7 0 10 -262144
-1 -1;
#X obj 618 718 ctlout 10 2;
#X obj 620 740 ctlout 11 2;
#X obj 618 761 ctlout 12 2;
#X obj 479 850 dac~ 1;
#X obj 595 848 dac~ 2;
#X obj 834 471 loadbang;
#X obj 479 826 tabplay~ head;
#X msg 839 510 read -resize Sink_Phrase_009.wav head;
#X obj 912 533 table head;
#X obj 478 684 unpack f f f;
#X obj 474 627 mrpeach/routeOSC /sound/head /sound/Cube;
#X connect 5 0 0 0;
#X connect 5 1 1 0;
#X connect 5 2 2 0;
#X connect 5 3 3 0;
#X connect 5 4 4 0;
#X connect 6 0 23 0;
#X connect 15 0 17 0;
#X connect 16 0 15 1;
#X connect 18 0 7 0;
#X connect 18 1 9 0;
#X connect 18 2 5 0;
#X connect 18 3 8 0;
#X connect 20 0 23 0;
#X connect 22 0 42 0;
#X connect 23 0 15 0;
#X connect 23 0 24 0;
#X connect 23 1 18 0;
#X connect 24 0 15 0;
#X connect 24 0 46 0;
#X connect 26 0 28 0;
#X connect 28 0 40 0;
#X connect 29 0 25 0;
#X connect 33 0 22 0;
#X connect 34 0 35 0;
#X connect 34 1 36 0;
#X connect 34 2 37 0;
#X connect 34 3 38 0;
#X connect 35 0 26 0;
#X connect 41 0 29 0;
#X connect 41 0 43 0;
#X connect 42 0 39 0;
#X connect 43 0 21 0;
#X connect 45 0 33 0;
#X connect 45 0 30 0;
#X connect 45 1 31 0;
#X connect 45 2 31 0;
#X connect 45 2 32 0;
#X connect 46 0 45 0;
#X connect 46 1 34 0;
