#N canvas 735 23 450 300 10;
#X obj 158 80 unpack f f f;
#X obj 139 163 / 5;
#X obj 137 210 + 1;
#X obj 138 186 * 126;
#X obj 223 166 / 5;
#X obj 221 213 + 1;
#X obj 222 189 * 126;
#X obj 274 214 + 1;
#X obj 275 190 * 126;
#X obj 139 136 + 0;
#X obj 223 139 + 0;
#X obj 276 140 + 0;
#X obj 276 167 / 4;
#X obj 146 31 inlet;
#X obj 136 268 outlet;
#X obj 193 270 outlet;
#X obj 253 266 outlet;
#X connect 0 0 9 0;
#X connect 0 1 10 0;
#X connect 0 2 11 0;
#X connect 1 0 3 0;
#X connect 2 0 14 0;
#X connect 3 0 2 0;
#X connect 4 0 6 0;
#X connect 5 0 15 0;
#X connect 6 0 5 0;
#X connect 7 0 16 0;
#X connect 8 0 7 0;
#X connect 9 0 1 0;
#X connect 10 0 4 0;
#X connect 11 0 12 0;
#X connect 12 0 8 0;
#X connect 13 0 0 0;
